<?xml version="1.0" encoding="utf-8"?>
<!-- Generator: Adobe Illustrator 27.6.1, SVG Export Plug-In . SVG Version: 6.00 Build 0)  -->
<svg version="1.1" id="Layer_1" xmlns:xodm="http://www.corel.com/coreldraw/odm/2003"
	 xmlns="http://www.w3.org/2000/svg" xmlns:xlink="http://www.w3.org/1999/xlink" x="0px" y="0px" viewBox="0 0 196 207.7"
	 style="enable-background:new 0 0 196 207.7;" xml:space="preserve">
<style type="text/css">
	.st0{clip-path:url(#SVGID_00000174572767410671758970000017475508940807175615_);}
	.st1{fill:none;}
	.st2{fill:#FEFEFE;}
	.st3{fill-rule:evenodd;clip-rule:evenodd;fill:#FEFEFE;}
</style>
<g id="Layer_x0020_1">
	<g>
		<defs>
			<rect id="SVGID_1_" x="4" width="527" height="207.7"/>
		</defs>
		<clipPath id="SVGID_00000032645250485165689170000001981708317484346039_">
			<use xlink:href="#SVGID_1_"  style="overflow:visible;"/>
		</clipPath>
		<g style="clip-path:url(#SVGID_00000032645250485165689170000001981708317484346039_);">
			<g id="_2760932371744">
			</g>
			<g>
			</g>
			<g>
				<defs>
					<rect id="SVGID_00000010295841646660503130000005617051003070548908_" x="4" width="527" height="207.7"/>
				</defs>
				<clipPath id="SVGID_00000154417254527185724360000013116110934052919171_">
					<use xlink:href="#SVGID_00000010295841646660503130000005617051003070548908_"  style="overflow:visible;"/>
				</clipPath>
			</g>
		</g>
	</g>
	<polygon class="st1" points="4,0 531,0 531,207.7 4,207.7 	"/>
	<g id="_2760932376592">
		<path class="st2" d="M52.1,104.5L52.1,104.5c-4.8,0-8.7,3.8-8.7,8.4v32.5h17.4v-32.5C60.8,108.3,56.9,104.5,52.1,104.5L52.1,104.5
			z"/>
		<path class="st2" d="M113,10.2h-32c18.1,1.4,32.4,16,32.4,33.9c0,18.8-15.8,34-35.3,34v67.3h35.1v-24.1c0-9.3,7.8-16.8,17.4-16.8
			s17.4,7.5,17.4,16.8v24.1h35.1V77.9C183.2,40.5,151.8,10.2,113,10.2L113,10.2z"/>
		<path class="st2" d="M43.4,56.1c0-4.6,3.9-8.4,8.7-8.4c4.8,0,8.7,3.8,8.7,8.4L43.4,56.1L43.4,56.1z M78.2,10.2
			c-38.5,0-69.7,30.1-69.7,67.3v67.9h17.4v-33.1c0-18.9,15.8-34.1,35.4-34.1h16.9L78.2,10.2L78.2,10.2L78.2,10.2z"/>
		<path class="st2" d="M18.1,167.6c-0.8,0-1.6,0.3-2.2,0.8c-0.6,0.5-1,1.2-1.2,2h6.6C20.9,168.5,19.9,167.6,18.1,167.6L18.1,167.6z
			 M18,164.3c2.4,0,4.3,0.7,5.7,2.1c1.4,1.4,2.1,3.3,2.1,5.7v1H14.6c0.3,2.4,1.8,3.5,4.7,3.5c1.9,0,3.8-0.6,5.6-1.8v3.6
			c-1.7,1.1-3.7,1.6-6.1,1.6c-2.9,0-5.1-0.7-6.6-2.2c-1.5-1.5-2.3-3.4-2.3-5.7c0-2.2,0.7-4.1,2.2-5.6
			C13.7,165.1,15.6,164.3,18,164.3L18,164.3z"/>
		<polygon class="st2" points="39.7,179.8 35.9,172.7 32.1,179.8 27.2,179.8 31.7,172.1 27.4,164.8 32.3,164.8 35.9,171.4 
			39.5,164.8 44.3,164.8 40.1,172.1 44.6,179.8 		"/>
		<path class="st2" d="M55.6,176.6c1.2,0,2.2-0.4,2.9-1.2c0.7-0.8,1.1-1.8,1.1-3.1c0-1.3-0.4-2.3-1.1-3.1c-0.7-0.8-1.7-1.1-2.9-1.1
			c-1.2,0-2.1,0.4-2.9,1.2c-0.8,0.8-1.2,1.9-1.2,3.1c0,1.2,0.4,2.3,1.1,3C53.4,176.2,54.4,176.6,55.6,176.6L55.6,176.6z M51.4,178.5
			L51.4,178.5l-0.1,8.5h-4.6v-22.3h3.7l0.6,2H51c0.6-0.8,1.4-1.4,2.4-1.8c1-0.4,2-0.6,3-0.6c2.4,0,4.4,0.7,5.8,2.1
			c1.4,1.4,2.1,3.3,2.1,5.6c0,2.4-0.7,4.3-2.2,5.8c-1.5,1.5-3.4,2.2-5.7,2.2C54.3,180.1,52.6,179.6,51.4,178.5L51.4,178.5
			L51.4,178.5z"/>
		<path class="st2" d="M75.4,168c-1.2,0-2.2,0.4-2.9,1.2c-0.8,0.8-1.1,1.8-1.1,3c0,1.3,0.4,2.3,1.1,3.1c0.7,0.8,1.7,1.2,2.9,1.2
			c1.2,0,2.2-0.4,3-1.2c0.7-0.8,1.1-1.8,1.1-3.1c0-1.2-0.4-2.2-1.1-3C77.6,168.4,76.6,168,75.4,168L75.4,168z M75.4,164.3
			c2.6,0,4.7,0.8,6.3,2.3c1.6,1.5,2.4,3.4,2.4,5.7c0,2.3-0.8,4.2-2.4,5.7c-1.6,1.5-3.7,2.2-6.2,2.2c-2.7,0-4.8-0.7-6.4-2.2
			c-1.6-1.5-2.3-3.4-2.3-5.7c0-2.3,0.8-4.2,2.4-5.7C70.7,165.1,72.8,164.3,75.4,164.3L75.4,164.3z"/>
		<path class="st2" d="M89.9,172.3c0,1.7,0.5,3.1,1.5,4.1c1,1,2.3,1.6,3.9,1.6c1.7,0,3-0.6,4-1.7c1-1.1,1.5-2.5,1.5-4
			c0-1.6-0.5-3-1.5-4.1c-1-1.1-2.3-1.7-4-1.7c-1.6,0-2.9,0.6-3.9,1.7C90.4,169.4,89.9,170.8,89.9,172.3L89.9,172.3z M89.9,155.8V167
			H90c1.3-1.7,3.2-2.6,5.7-2.6c2.3,0,4.2,0.7,5.6,2.2c1.4,1.5,2.2,3.4,2.2,5.7c0,2.2-0.8,4.1-2.3,5.6c-1.5,1.5-3.4,2.3-5.8,2.3
			c-1.2,0-2.4-0.2-3.4-0.7c-1-0.5-1.8-1.1-2.3-2h-0.1l-0.5,2.3h-1.8v-23.9L89.9,155.8L89.9,155.8z"/>
		<path class="st2" d="M109.2,175.5c0,0.8,0.3,1.5,1,2c0.7,0.5,1.6,0.7,2.6,0.7c1.4,0,2.5-0.4,3.4-1.3c0.8-0.9,1.2-2,1.2-3.3v-1
			h-3.7C110.7,172.5,109.2,173.5,109.2,175.5L109.2,175.5z M118.2,179.8l-0.3-2h-0.1c-1.3,1.5-3.2,2.3-5.7,2.3
			c-1.9,0-3.3-0.4-4.2-1.3c-0.9-0.9-1.3-1.9-1.3-3c0-1.6,0.6-2.9,1.8-3.8c1.2-0.9,3-1.4,5.4-1.4h3.7v-0.5c0-2.4-1.4-3.7-4.3-3.7
			c-1.6,0-3.2,0.5-5,1.4v-2.2c1.6-0.9,3.4-1.3,5.3-1.3c2.3,0,3.9,0.5,5,1.5c1,1,1.6,2.5,1.6,4.5v9.4L118.2,179.8L118.2,179.8z"/>
		<polygon class="st2" points="124.1,164.8 136.2,164.8 136.2,165.2 127,177.8 136,177.8 136,179.8 123,179.8 123,179.4 
			132.3,166.8 124.1,166.8 		"/>
		<path class="st2" d="M141.2,175.5c0,0.8,0.3,1.5,1,2c0.7,0.5,1.6,0.7,2.6,0.7c1.4,0,2.5-0.4,3.4-1.3c0.8-0.9,1.2-2,1.2-3.3v-1
			h-3.7C142.7,172.5,141.2,173.5,141.2,175.5L141.2,175.5z M150.2,179.8l-0.3-2h-0.1c-1.3,1.5-3.2,2.3-5.7,2.3
			c-1.9,0-3.3-0.4-4.2-1.3c-0.9-0.9-1.3-1.9-1.3-3c0-1.6,0.6-2.9,1.8-3.8c1.2-0.9,3-1.4,5.4-1.4h3.7v-0.5c0-2.4-1.4-3.7-4.3-3.7
			c-1.6,0-3.2,0.5-5,1.4v-2.2c1.6-0.9,3.4-1.3,5.3-1.3c2.3,0,3.9,0.5,5,1.5c1,1,1.6,2.5,1.6,4.5v9.4L150.2,179.8L150.2,179.8z"/>
		<path class="st2" d="M158.7,175.5c0,0.8,0.3,1.5,1,2c0.7,0.5,1.6,0.7,2.6,0.7c1.4,0,2.5-0.4,3.4-1.3c0.8-0.9,1.2-2,1.2-3.3v-1
			h-3.7C160.2,172.5,158.7,173.5,158.7,175.5L158.7,175.5z M167.7,179.8l-0.3-2h-0.1c-1.3,1.5-3.2,2.3-5.7,2.3
			c-1.9,0-3.3-0.4-4.2-1.3c-0.9-0.9-1.3-1.9-1.3-3c0-1.6,0.6-2.9,1.8-3.8c1.2-0.9,3-1.4,5.4-1.4h3.7v-0.5c0-2.4-1.4-3.7-4.3-3.7
			c-1.6,0-3.2,0.5-5,1.4v-2.2c1.6-0.9,3.4-1.3,5.3-1.3c2.3,0,3.9,0.5,5,1.5c1,1,1.6,2.5,1.6,4.5v9.4L167.7,179.8L167.7,179.8z"/>
		<path class="st2" d="M181.5,166.8c-1.3,0-2.4,0.5-3.2,1.6c-0.8,1.1-1.2,2.5-1.2,4.2v7.2h-2.6v-15h1.8l0.5,2.6l0.1,0
			c1-2,2.7-3,5.1-3c0.5,0,0.9,0.1,1.3,0.2v2.4C182.7,166.9,182.2,166.8,181.5,166.8L181.5,166.8z"/>
		<path class="st2" d="M90.2,187.5v9.8h-2.3v-9.8H90.2z M98.9,193.1v4.2h-2.1v-3.8c0-0.4-0.1-0.7-0.3-1c-0.2-0.3-0.5-0.4-0.8-0.4
			c-0.4,0-0.8,0.2-1.1,0.5c-0.3,0.3-0.4,0.8-0.4,1.3v3.4h-2.1v-6.6h1.6c0,0.1,0.1,0.3,0.1,0.5c0.1,0.2,0.1,0.4,0.1,0.4h0.1
			c0.6-0.7,1.4-1.1,2.4-1.1c0.8,0,1.4,0.2,1.8,0.7C98.7,191.7,98.9,192.3,98.9,193.1L98.9,193.1z M104.1,192.1
			c-0.5,0-0.9,0.2-1.3,0.5c-0.3,0.4-0.5,0.8-0.5,1.4c0,0.6,0.2,1,0.5,1.3c0.3,0.3,0.8,0.5,1.3,0.5c0.5,0,0.9-0.2,1.3-0.5
			c0.3-0.4,0.5-0.8,0.5-1.3c0-0.5-0.2-1-0.5-1.3C105.1,192.3,104.7,192.1,104.1,192.1L104.1,192.1z M105.9,191.2L105.9,191.2
			l0.1-2.2c0-0.6,0-1.4,0-2.2h2v5.2c0,1.5,0,3.3,0,5.2h-1.6l-0.3-0.8c-0.3,0.3-0.6,0.5-1.1,0.7c-0.4,0.2-0.9,0.2-1.4,0.2
			c-1.1,0-1.9-0.3-2.5-0.9c-0.6-0.6-0.9-1.4-0.9-2.4c0-1.1,0.3-1.9,1-2.6c0.7-0.7,1.5-1,2.5-1C104.7,190.5,105.4,190.8,105.9,191.2
			L105.9,191.2z M111.8,190.7v6.6h-2.1v-6.6H111.8z M118.2,197.3l-0.2-0.8h0c-0.5,0.6-1.3,0.9-2.4,0.9c-0.7,0-1.3-0.2-1.7-0.5
			c-0.4-0.3-0.6-0.8-0.6-1.3c0-0.7,0.3-1.3,0.8-1.7c0.5-0.4,1.3-0.6,2.4-0.6h1.3v-0.1c0-0.8-0.5-1.2-1.6-1.2c-0.7,0-1.4,0.2-2.1,0.6
			V191c0.8-0.3,1.6-0.5,2.6-0.5c2.1,0,3.1,0.9,3.1,2.8v3.9L118.2,197.3L118.2,197.3z M115.3,195.3c0,0.3,0.1,0.5,0.3,0.6
			c0.2,0.1,0.5,0.2,0.8,0.2c0.4,0,0.8-0.1,1.1-0.4c0.3-0.3,0.4-0.6,0.4-1v-0.3h-1.1C115.8,194.4,115.3,194.7,115.3,195.3
			L115.3,195.3z M123.7,196.4c0,0.3-0.1,0.5-0.3,0.7c-0.2,0.2-0.5,0.3-0.8,0.3c-0.3,0-0.6-0.1-0.8-0.3c-0.2-0.2-0.3-0.5-0.3-0.7
			c0-0.3,0.1-0.6,0.3-0.8c0.2-0.2,0.5-0.3,0.8-0.3c0.3,0,0.6,0.1,0.8,0.3C123.6,195.8,123.7,196.1,123.7,196.4L123.7,196.4z
			 M137.2,195.7v1.1c-0.8,0.5-1.8,0.7-3,0.7c-1.6,0-2.9-0.5-3.8-1.4c-0.9-0.9-1.4-2.1-1.4-3.6c0-1.4,0.5-2.7,1.5-3.6
			c1-1,2.2-1.5,3.8-1.5c1.1,0,1.9,0.1,2.5,0.4v1.1c-0.7-0.3-1.5-0.5-2.4-0.5c-1.2,0-2.2,0.4-3,1.1c-0.8,0.7-1.2,1.7-1.2,3
			c0,1.2,0.4,2.2,1.1,2.9c0.7,0.7,1.7,1.1,3,1.1C135.3,196.4,136.2,196.2,137.2,195.7L137.2,195.7z M138.7,194.7v-4h1.2v3.9
			c0,0.6,0.1,1.1,0.4,1.4c0.3,0.3,0.7,0.5,1.2,0.5c0.6,0,1.1-0.2,1.5-0.6c0.4-0.4,0.5-1,0.5-1.9v-3.3h1.1v6.6h-0.8l-0.2-0.9h-0.1
			c-0.6,0.7-1.3,1-2.2,1C139.5,197.4,138.7,196.5,138.7,194.7L138.7,194.7z M149.8,191.6c-0.6,0-1.1,0.2-1.4,0.7
			c-0.4,0.5-0.5,1.1-0.5,1.8v3.1h-1.2v-6.6h0.8l0.2,1.2c0,0,0,0,0,0c0.5-0.9,1.2-1.3,2.2-1.3c0.2,0,0.4,0,0.6,0.1v1.1
			C150.4,191.6,150.1,191.6,149.8,191.6L149.8,191.6z M155.8,197.3l-0.2-0.9h0c-0.6,0.7-1.4,1-2.5,1c-0.8,0-1.5-0.2-1.8-0.6
			c-0.4-0.4-0.6-0.8-0.6-1.3c0-0.7,0.3-1.3,0.8-1.7c0.5-0.4,1.3-0.6,2.3-0.6h1.6v-0.2c0-1.1-0.6-1.6-1.9-1.6c-0.7,0-1.4,0.2-2.2,0.6
			v-0.9c0.7-0.4,1.5-0.6,2.3-0.6c1,0,1.7,0.2,2.2,0.7c0.5,0.4,0.7,1.1,0.7,2v4.1L155.8,197.3L155.8,197.3z M151.9,195.4
			c0,0.4,0.2,0.7,0.5,0.9c0.3,0.2,0.7,0.3,1.2,0.3c0.6,0,1.1-0.2,1.5-0.6c0.4-0.4,0.5-0.9,0.5-1.5v-0.5h-1.6
			C152.5,194.1,151.9,194.5,151.9,195.4L151.9,195.4z M160.1,188.7h0.3v2h1.9v0.9h-1.9v3.7c0,0.4,0.1,0.7,0.2,0.9
			c0.1,0.2,0.4,0.3,0.8,0.3c0.4,0,0.8-0.1,1.3-0.4v0.9c-0.4,0.3-0.9,0.4-1.5,0.4c-0.8,0-1.4-0.3-1.6-0.8c-0.2-0.4-0.3-1.1-0.3-1.9
			v-3.2h-1.1v-0.7l1.2-0.3c0.1-0.2,0.2-0.5,0.4-1C159.9,189.2,160,188.9,160.1,188.7L160.1,188.7z M170.1,193.9c0,0.2,0,0.3,0,0.3
			h-5.3c0,0.7,0.3,1.3,0.7,1.7c0.5,0.4,1,0.6,1.7,0.6c1,0,1.8-0.3,2.6-0.8v1c-0.7,0.5-1.5,0.7-2.6,0.7c-1.1,0-2-0.3-2.7-0.9
			c-0.6-0.6-1-1.5-1-2.5c0-1,0.3-1.8,1-2.4C166.5,189.6,170,190.4,170.1,193.9L170.1,193.9z M166.9,191.5c-0.6,0-1.1,0.2-1.5,0.5
			c-0.4,0.4-0.6,0.8-0.7,1.4h4.2c-0.1-0.6-0.3-1.1-0.7-1.4C167.9,191.6,167.5,191.5,166.9,191.5L166.9,191.5z M177.4,194
			c0-0.7-0.2-1.3-0.7-1.8c-0.4-0.5-1-0.7-1.8-0.7c-0.7,0-1.3,0.2-1.7,0.7c-0.4,0.5-0.7,1.1-0.7,1.8c0,0.7,0.2,1.3,0.7,1.8
			c0.4,0.5,1,0.7,1.8,0.7c0.7,0,1.3-0.2,1.7-0.7C177.2,195.3,177.4,194.7,177.4,194L177.4,194z M177.4,191.5L177.4,191.5l0.1-4.7
			h1.1v10.5h-0.8l-0.2-0.9l-0.1,0c-0.3,0.4-0.6,0.6-1.1,0.8c-0.5,0.2-1,0.3-1.5,0.3c-1,0-1.8-0.3-2.5-0.9c-0.6-0.6-1-1.4-1-2.5
			c0-1,0.3-1.8,1-2.5c0.6-0.7,1.5-1,2.5-1C175.9,190.6,176.8,190.9,177.4,191.5L177.4,191.5z M180.9,195.9c0.2,0,0.4,0.1,0.6,0.2
			c0.2,0.1,0.2,0.3,0.2,0.5c0,0.2-0.1,0.4-0.2,0.5c-0.2,0.1-0.3,0.2-0.6,0.2c-0.2,0-0.4-0.1-0.6-0.2c-0.2-0.1-0.2-0.3-0.2-0.5
			c0-0.2,0.1-0.4,0.2-0.5C180.5,196,180.6,195.9,180.9,195.9L180.9,195.9z"/>
		<path class="st3" d="M110.8,187.7c0.6,0,1,0.5,1,1c0,0.6-0.5,1-1,1c-0.6,0-1-0.5-1-1C109.8,188.1,110.2,187.7,110.8,187.7z"/>
	</g>
</g>
</svg>
