<?xml version="1.0" encoding="utf-8"?>
<!-- Generator: Adobe Illustrator 27.6.1, SVG Export Plug-In . SVG Version: 6.00 Build 0)  -->
<svg version="1.1" id="Layer_1" xmlns:xodm="http://www.corel.com/coreldraw/odm/2003"
	 xmlns="http://www.w3.org/2000/svg" xmlns:xlink="http://www.w3.org/1999/xlink" x="0px" y="0px" viewBox="0 0 204 207.7"
	 style="enable-background:new 0 0 204 207.7;" xml:space="preserve">
<style type="text/css">
	.st0{fill:#F8CA9F;}
	.st1{fill:#20465E;}
	.st2{fill:#93CEC8;}
	.st3{fill-rule:evenodd;clip-rule:evenodd;fill:#20465E;}
	.st4{clip-path:url(#SVGID_00000122714660327697008410000002461368252448267180_);}
	.st5{fill:none;}
</style>
<g id="Layer_x0020_1">
	<g id="_2760177780816">
		<g>
			<path class="st0" d="M57.3,105.7L57.3,105.7c-4.9,0-8.9,3.8-8.9,8.6v33h17.7v-33C66.1,109.6,62.2,105.7,57.3,105.7z"/>
			<path class="st1" d="M119.3,9.8H83.9v137.5h35.7v-24.5c0-9.4,7.9-17.1,17.7-17.1l0,0c9.8,0,17.7,7.7,17.7,17.1v24.5h35.7V78.7
				C190.7,40.6,158.7,9.8,119.3,9.8L119.3,9.8z"/>
			<path class="st1" d="M48.4,56.5c0-4.7,4-8.6,8.9-8.6c4.9,0,8.9,3.8,8.9,8.6H48.4z M83.9,9.8c-39.2,0-70.9,30.6-70.9,68.4v69.1
				h17.7v-33.7c0-19.2,16.1-34.7,36-34.7h17.2L83.9,9.8L83.9,9.8L83.9,9.8z"/>
			<path class="st2" d="M119.7,44.3c0,19.1-16.1,34.6-35.9,34.6V9.8h2.9C105.2,11.2,119.7,26.1,119.7,44.3z"/>
		</g>
		<path class="st1" d="M22.7,169.9c-0.9,0-1.6,0.3-2.2,0.8c-0.6,0.5-1,1.2-1.2,2H26C25.6,170.8,24.5,169.9,22.7,169.9L22.7,169.9z
			 M22.6,166.5c2.4,0,4.4,0.7,5.8,2.1c1.4,1.4,2.1,3.4,2.1,5.8v1H19.2c0.3,2.4,1.8,3.6,4.8,3.6c1.9,0,3.8-0.6,5.7-1.8v3.7
			c-1.7,1.1-3.8,1.6-6.2,1.6c-2.9,0-5.1-0.8-6.7-2.3c-1.5-1.5-2.3-3.5-2.3-5.8c0-2.3,0.8-4.2,2.3-5.7
			C18.2,167.3,20.2,166.5,22.6,166.5z"/>
		<polygon class="st1" points="44.7,182.3 40.8,175.1 36.9,182.3 32,182.3 36.6,174.5 32.2,167.1 37.1,167.1 40.8,173.8 44.5,167.1 
			49.4,167.1 45.1,174.5 49.7,182.3 		"/>
		<path class="st1" d="M60.9,179c1.2,0,2.2-0.4,2.9-1.2c0.7-0.8,1.1-1.9,1.1-3.2c0-1.3-0.4-2.4-1.1-3.2c-0.7-0.8-1.7-1.2-3-1.2
			c-1.2,0-2.2,0.4-2.9,1.3c-0.8,0.8-1.2,1.9-1.2,3.1c0,1.3,0.4,2.3,1.1,3.1C58.6,178.6,59.6,179,60.9,179L60.9,179z M56.5,181
			L56.5,181l-0.1,8.7h-4.7V167h3.7l0.6,2.1h0.1c0.6-0.8,1.4-1.4,2.4-1.8c1-0.4,2-0.7,3.1-0.7c2.5,0,4.4,0.7,5.9,2.2
			c1.4,1.4,2.1,3.3,2.1,5.7c0,2.4-0.8,4.4-2.3,5.9c-1.5,1.5-3.4,2.3-5.8,2.3C59.5,182.6,57.8,182.1,56.5,181L56.5,181L56.5,181z"/>
		<path class="st1" d="M81,170.3c-1.2,0-2.2,0.4-3,1.2c-0.8,0.8-1.2,1.8-1.2,3.1c0,1.3,0.4,2.4,1.1,3.2c0.7,0.8,1.7,1.2,3,1.2
			c1.3,0,2.3-0.4,3-1.2c0.8-0.8,1.1-1.9,1.1-3.2c0-1.2-0.4-2.3-1.2-3.1C83.3,170.7,82.3,170.3,81,170.3z M81,166.6
			c2.7,0,4.8,0.8,6.4,2.3c1.6,1.5,2.4,3.4,2.4,5.8c0,2.3-0.8,4.2-2.4,5.8c-1.6,1.5-3.8,2.3-6.4,2.3c-2.7,0-4.9-0.7-6.5-2.2
			c-1.6-1.5-2.4-3.4-2.4-5.8c0-2.3,0.8-4.2,2.5-5.8C76.3,167.3,78.4,166.6,81,166.6L81,166.6z"/>
		<path class="st1" d="M95.8,174.7c0,1.7,0.5,3.1,1.5,4.2c1,1.1,2.3,1.6,4,1.6c1.7,0,3.1-0.6,4.1-1.7c1-1.1,1.6-2.5,1.6-4.1
			c0-1.6-0.5-3-1.6-4.1c-1-1.1-2.4-1.7-4-1.7c-1.7,0-3,0.6-4,1.7C96.3,171.7,95.8,173.1,95.8,174.7L95.8,174.7z M95.7,157.9v11.3
			h0.1c1.3-1.7,3.3-2.6,5.8-2.6c2.3,0,4.2,0.8,5.7,2.3c1.5,1.5,2.2,3.4,2.2,5.8c0,2.3-0.8,4.2-2.3,5.7c-1.5,1.5-3.5,2.3-5.9,2.3
			c-1.3,0-2.4-0.2-3.5-0.7c-1.1-0.5-1.8-1.1-2.3-2h-0.1l-0.5,2.3h-1.8v-24.4L95.7,157.9L95.7,157.9z"/>
		<path class="st1" d="M115.4,178c0,0.8,0.3,1.5,1,2c0.7,0.5,1.6,0.7,2.7,0.7c1.4,0,2.6-0.5,3.4-1.4c0.8-0.9,1.3-2,1.3-3.4v-1.1H120
			C116.9,174.9,115.4,175.9,115.4,178L115.4,178z M124.5,182.3l-0.4-2h-0.1c-1.3,1.6-3.2,2.4-5.8,2.4c-1.9,0-3.4-0.4-4.3-1.3
			c-0.9-0.9-1.3-1.9-1.3-3c0-1.7,0.6-3,1.9-3.9c1.2-0.9,3.1-1.4,5.4-1.4h3.8v-0.5c0-2.5-1.4-3.7-4.3-3.7c-1.6,0-3.3,0.5-5.1,1.4V168
			c1.6-0.9,3.4-1.3,5.4-1.3c2.3,0,4,0.5,5,1.5c1.1,1,1.6,2.5,1.6,4.6v9.5L124.5,182.3L124.5,182.3z"/>
		<polygon class="st1" points="130.6,167.1 142.9,167.1 142.9,167.4 133.5,180.3 142.7,180.3 142.7,182.3 129.4,182.3 129.4,181.9 
			138.9,169.1 130.6,169.1 		"/>
		<path class="st1" d="M147.9,178c0,0.8,0.3,1.5,1,2c0.7,0.5,1.6,0.7,2.7,0.7c1.4,0,2.6-0.5,3.4-1.4c0.8-0.9,1.3-2,1.3-3.4v-1.1
			h-3.8C149.5,174.9,147.9,175.9,147.9,178z M157.1,182.3l-0.4-2h-0.1c-1.3,1.6-3.2,2.4-5.8,2.4c-1.9,0-3.4-0.4-4.3-1.3
			c-0.9-0.9-1.3-1.9-1.3-3c0-1.7,0.6-3,1.9-3.9c1.2-0.9,3.1-1.4,5.4-1.4h3.8v-0.5c0-2.5-1.4-3.7-4.3-3.7c-1.6,0-3.3,0.5-5.1,1.4V168
			c1.6-0.9,3.4-1.3,5.4-1.3c2.3,0,4,0.5,5,1.5c1.1,1,1.6,2.5,1.6,4.6v9.5L157.1,182.3L157.1,182.3z"/>
		<path class="st1" d="M165.7,178c0,0.8,0.3,1.5,1,2c0.7,0.5,1.6,0.7,2.7,0.7c1.4,0,2.6-0.5,3.4-1.4c0.8-0.9,1.3-2,1.3-3.4v-1.1
			h-3.8C167.2,174.9,165.7,175.9,165.7,178L165.7,178z M174.8,182.3l-0.4-2h-0.1c-1.3,1.6-3.2,2.4-5.8,2.4c-1.9,0-3.4-0.4-4.3-1.3
			c-0.9-0.9-1.3-1.9-1.3-3c0-1.7,0.6-3,1.9-3.9c1.2-0.9,3.1-1.4,5.4-1.4h3.8v-0.5c0-2.5-1.4-3.7-4.3-3.7c-1.6,0-3.3,0.5-5.1,1.4V168
			c1.6-0.9,3.4-1.3,5.4-1.3c2.3,0,4,0.5,5,1.5c1.1,1,1.6,2.5,1.6,4.6v9.5L174.8,182.3L174.8,182.3z"/>
		<path class="st1" d="M189,169.1c-1.3,0-2.4,0.6-3.3,1.7c-0.8,1.1-1.3,2.5-1.3,4.3v7.3h-2.7v-15.2h1.9l0.5,2.7l0.1,0
			c1.1-2.1,2.8-3.1,5.1-3.1c0.5,0,1,0.1,1.3,0.2v2.4C190.2,169.2,189.6,169.1,189,169.1L189,169.1z"/>
		<path class="st1" d="M96.6,191v10h-2.3v-10H96.6z M105.5,196.7v4.3h-2.1v-3.9c0-0.4-0.1-0.8-0.3-1c-0.2-0.3-0.5-0.4-0.8-0.4
			c-0.5,0-0.8,0.2-1.1,0.5c-0.3,0.3-0.4,0.8-0.4,1.4v3.5h-2.1v-6.7h1.6c0,0.1,0.1,0.3,0.1,0.5c0.1,0.2,0.1,0.4,0.1,0.4h0.1
			c0.6-0.7,1.4-1.1,2.5-1.1c0.8,0,1.4,0.2,1.8,0.7C105.3,195.3,105.5,195.9,105.5,196.7L105.5,196.7z M110.8,195.7
			c-0.5,0-0.9,0.2-1.3,0.6c-0.3,0.4-0.5,0.8-0.5,1.4c0,0.6,0.2,1,0.5,1.4c0.3,0.3,0.8,0.5,1.3,0.5c0.5,0,1-0.2,1.3-0.6
			c0.3-0.4,0.5-0.8,0.5-1.4c0-0.6-0.2-1-0.5-1.4C111.8,195.9,111.4,195.7,110.8,195.7L110.8,195.7z M112.6,194.8L112.6,194.8
			l0.1-2.3c0-0.7,0-1.4,0-2.2h2v5.4c0,1.6,0,3.4,0,5.4h-1.6l-0.3-0.8c-0.3,0.3-0.6,0.5-1.1,0.7c-0.5,0.2-0.9,0.2-1.4,0.2
			c-1.1,0-1.9-0.3-2.5-0.9c-0.6-0.6-0.9-1.5-0.9-2.5c0-1.1,0.3-2,1-2.6c0.7-0.7,1.5-1,2.5-1C111.4,194.1,112.1,194.3,112.6,194.8
			L112.6,194.8z M118.7,194.3v6.7h-2.1v-6.7H118.7z M125.2,201l-0.2-0.8h0c-0.6,0.6-1.4,1-2.5,1c-0.7,0-1.3-0.2-1.7-0.5
			c-0.4-0.4-0.6-0.8-0.6-1.4c0-0.7,0.3-1.3,0.8-1.7c0.6-0.4,1.4-0.6,2.4-0.6h1.4v-0.1c0-0.8-0.5-1.2-1.6-1.2c-0.7,0-1.4,0.2-2.2,0.6
			v-1.5c0.8-0.3,1.7-0.5,2.7-0.5c2.1,0,3.2,1,3.2,2.9v4L125.2,201L125.2,201z M122.3,199c0,0.3,0.1,0.5,0.3,0.6
			c0.2,0.1,0.5,0.2,0.8,0.2c0.5,0,0.8-0.1,1.1-0.4c0.3-0.3,0.4-0.6,0.4-1.1V198h-1.1C122.8,198,122.3,198.3,122.3,199L122.3,199z
			 M130.8,200.1c0,0.3-0.1,0.5-0.3,0.7c-0.2,0.2-0.5,0.3-0.8,0.3c-0.3,0-0.6-0.1-0.8-0.3c-0.2-0.2-0.3-0.5-0.3-0.8
			c0-0.3,0.1-0.6,0.3-0.8c0.2-0.2,0.5-0.3,0.8-0.3c0.3,0,0.6,0.1,0.8,0.3C130.7,199.5,130.8,199.8,130.8,200.1L130.8,200.1z
			 M144.6,199.3v1.1c-0.8,0.5-1.8,0.7-3,0.7c-1.7,0-3-0.5-3.9-1.4c-0.9-0.9-1.4-2.2-1.4-3.7c0-1.5,0.5-2.7,1.5-3.7
			c1-1,2.3-1.5,3.8-1.5c1.1,0,2,0.1,2.6,0.5v1.1c-0.7-0.4-1.6-0.5-2.4-0.5c-1.2,0-2.2,0.4-3,1.1c-0.8,0.8-1.2,1.8-1.2,3
			c0,1.2,0.4,2.2,1.1,2.9c0.7,0.7,1.7,1.1,3.1,1.1C142.7,200.1,143.6,199.9,144.6,199.3L144.6,199.3z M146.1,198.3v-4.1h1.2v4
			c0,0.6,0.1,1.1,0.4,1.4c0.3,0.3,0.7,0.5,1.2,0.5c0.7,0,1.2-0.2,1.5-0.6c0.4-0.4,0.5-1.1,0.5-1.9v-3.4h1.2v6.7h-0.8l-0.2-0.9H151
			c-0.6,0.7-1.3,1.1-2.3,1.1C147,201.1,146.1,200.2,146.1,198.3L146.1,198.3z M157.5,195.2c-0.6,0-1.1,0.2-1.4,0.7
			c-0.4,0.5-0.6,1.1-0.6,1.9v3.2h-1.2v-6.7h0.8l0.2,1.2c0,0,0,0,0,0c0.5-0.9,1.2-1.4,2.3-1.4c0.2,0,0.4,0,0.6,0.1v1.1
			C158.1,195.2,157.8,195.2,157.5,195.2L157.5,195.2z M163.6,201l-0.2-0.9h0c-0.6,0.7-1.4,1-2.6,1c-0.9,0-1.5-0.2-1.9-0.6
			c-0.4-0.4-0.6-0.9-0.6-1.3c0-0.7,0.3-1.3,0.8-1.7c0.5-0.4,1.3-0.6,2.4-0.6h1.7v-0.2c0-1.1-0.6-1.6-1.9-1.6c-0.7,0-1.5,0.2-2.2,0.6
			v-1c0.7-0.4,1.5-0.6,2.4-0.6c1,0,1.8,0.2,2.2,0.7c0.5,0.4,0.7,1.1,0.7,2v4.2L163.6,201L163.6,201z M159.6,199.1
			c0,0.4,0.2,0.7,0.5,0.9c0.3,0.2,0.7,0.3,1.2,0.3c0.6,0,1.1-0.2,1.5-0.6c0.4-0.4,0.6-0.9,0.6-1.5v-0.5h-1.7
			C160.3,197.7,159.6,198.2,159.6,199.1L159.6,199.1z M168,192.2h0.3v2.1h2v0.9h-2v3.7c0,0.4,0.1,0.7,0.2,0.9
			c0.2,0.2,0.4,0.3,0.8,0.3c0.4,0,0.9-0.1,1.3-0.4v1c-0.4,0.3-0.9,0.4-1.5,0.4c-0.9,0-1.4-0.3-1.7-0.8c-0.2-0.5-0.3-1.1-0.3-1.9
			v-3.2h-1.1v-0.7l1.2-0.3c0.1-0.2,0.2-0.5,0.4-1C167.8,192.7,167.9,192.4,168,192.2L168,192.2z M178.2,197.6c0,0.2,0,0.3,0,0.3
			h-5.4c0,0.7,0.3,1.3,0.8,1.8c0.5,0.4,1.1,0.6,1.8,0.6c1,0,1.9-0.3,2.6-0.8v1c-0.7,0.5-1.6,0.7-2.6,0.7c-1.2,0-2.1-0.3-2.7-1
			c-0.7-0.6-1-1.5-1-2.6c0-1,0.3-1.8,1-2.5C174.6,193.1,178.1,194,178.2,197.6L178.2,197.6z M175,195c-0.6,0-1.1,0.2-1.5,0.5
			c-0.4,0.4-0.7,0.9-0.7,1.5h4.3c-0.1-0.6-0.3-1.1-0.7-1.5C176,195.2,175.5,195,175,195L175,195z M185.7,197.7
			c0-0.7-0.2-1.3-0.7-1.8c-0.4-0.5-1.1-0.7-1.8-0.7c-0.7,0-1.3,0.3-1.8,0.8c-0.4,0.5-0.7,1.1-0.7,1.8c0,0.8,0.2,1.4,0.7,1.8
			c0.4,0.5,1,0.7,1.8,0.7c0.7,0,1.3-0.2,1.8-0.7C185.5,199,185.7,198.4,185.7,197.7L185.7,197.7z M185.6,195.1L185.6,195.1l0.1-4.8
			h1.2V201H186l-0.2-1l-0.1,0c-0.3,0.4-0.6,0.7-1.1,0.9c-0.5,0.2-1,0.3-1.5,0.3c-1,0-1.9-0.3-2.5-0.9c-0.6-0.6-1-1.5-1-2.5
			c0-1,0.3-1.9,1-2.6c0.7-0.7,1.5-1,2.5-1C184.2,194.1,185,194.5,185.6,195.1L185.6,195.1z M189.2,199.6c0.2,0,0.4,0.1,0.6,0.2
			c0.2,0.1,0.2,0.3,0.2,0.6c0,0.2-0.1,0.4-0.2,0.6c-0.2,0.1-0.4,0.2-0.6,0.2s-0.4-0.1-0.6-0.2c-0.2-0.1-0.2-0.3-0.2-0.6
			c0-0.2,0.1-0.4,0.2-0.6C188.8,199.6,189,199.6,189.2,199.6z"/>
		<path class="st3" d="M117.6,191.2c0.6,0,1.1,0.5,1.1,1s-0.5,1-1.1,1c-0.6,0-1.1-0.5-1.1-1S117,191.2,117.6,191.2z"/>
	</g>
	<g>
		<defs>
			<rect id="SVGID_1_" x="0" width="527" height="207.7"/>
		</defs>
		<clipPath id="SVGID_00000017499025065552963140000014247343067658955674_">
			<use xlink:href="#SVGID_1_"  style="overflow:visible;"/>
		</clipPath>
		<g style="clip-path:url(#SVGID_00000017499025065552963140000014247343067658955674_);">
			<g id="_2720393079200">
			</g>
			<g>
			</g>
			<g>
				<defs>
					<rect id="SVGID_00000031928134752108132830000005542217304044661690_" x="0" width="527" height="207.7"/>
				</defs>
				<clipPath id="SVGID_00000003089838695814595570000001937249025962536110_">
					<use xlink:href="#SVGID_00000031928134752108132830000005542217304044661690_"  style="overflow:visible;"/>
				</clipPath>
			</g>
		</g>
	</g>
	<polygon class="st5" points="0,0 204,0 204,207.7 0,207.7 	"/>
</g>
</svg>
